<svg width="50" height="50" viewBox="0 0 50 50" fill="none" xmlns="http://www.w3.org/2000/svg">
<path d="M45.633 17.348C46.54 19.792 47 22.367 47 25C47 37.131 37.131 47 25 47C18.405 47 12.205 44.037 8.042 39H15V37H5V47H7V40.874C11.53 46.007 18.068 49 25 49C38.234 49 49 38.233 49 25C49 22.128 48.498 19.32 47.508 16.652L45.633 17.348Z" fill="white"/>
<path d="M35 13H45V3H43V9.125C38.47 3.992 31.934 1 25 1C11.767 1 1 11.767 1 25C1 27.872 1.502 30.68 2.492 33.348L4.367 32.652C3.46 30.208 3 27.633 3 25C3 12.869 12.869 3 25 3C31.598 3 37.795 5.962 41.958 11H35V13Z" fill="white"/>
</svg>
