<svg width="264" height="264" viewBox="0 0 264 264" fill="none" xmlns="http://www.w3.org/2000/svg">
<path d="M151.542 232.031H120.414C118.503 232.032 116.66 231.325 115.24 230.047C113.819 228.77 112.922 227.011 112.721 225.112L110.416 203.409C107.198 202.314 104.055 201.012 101.006 199.511L84.0469 213.226C82.5626 214.422 80.6892 215.027 78.786 214.926C76.8829 214.825 75.084 214.026 73.7344 212.68L51.7223 190.668C50.3767 189.318 49.5767 187.519 49.4758 185.616C49.375 183.713 49.9803 181.84 51.1758 180.355L64.8966 163.376C63.393 160.327 62.0891 157.184 60.9933 153.966L39.2545 151.645C37.3555 151.444 35.598 150.548 34.3205 149.128C33.043 147.709 32.3357 145.867 32.3348 143.957V112.824C32.3357 110.914 33.043 109.072 34.3205 107.653C35.598 106.234 37.3555 105.337 39.2545 105.136L60.9572 102.831C62.053 99.6131 63.3569 96.4698 64.8605 93.421L51.1397 76.4414C49.9442 74.9571 49.3389 73.0838 49.4397 71.1806C49.5406 69.2774 50.3406 67.4785 51.6862 66.1289L73.6983 44.1169C75.0479 42.7712 76.8468 41.9713 78.7499 41.8704C80.6531 41.7695 82.5265 42.3749 84.0108 43.5703L100.99 57.286C104.04 55.7849 107.183 54.4828 110.4 53.3878L112.705 31.6852C112.903 29.7798 113.801 28.0157 115.225 26.7345C116.649 25.4533 118.498 24.7461 120.414 24.75H151.542C153.453 24.7496 155.296 25.4563 156.716 26.7339C158.137 28.0116 159.034 29.7698 159.235 31.6697L161.535 53.3724C164.754 54.4673 167.899 55.7694 170.95 57.2705L187.925 43.5549C189.409 42.3594 191.282 41.754 193.186 41.8549C195.089 41.9558 196.888 42.7558 198.237 44.1014L220.249 66.1135C221.595 67.4631 222.395 69.262 222.496 71.1651C222.597 73.0683 221.991 74.9417 220.796 76.426L207.075 93.4055C208.576 96.4553 209.88 99.5985 210.978 102.816L232.681 105.12C234.579 105.323 236.335 106.22 237.612 107.639C238.888 109.058 239.595 110.9 239.595 112.808V143.942C239.599 145.85 238.897 147.693 237.625 149.115C236.352 150.537 234.599 151.438 232.702 151.645L210.999 153.95C209.901 157.167 208.597 160.311 207.096 163.36L220.816 180.34C222.012 181.824 222.617 183.698 222.516 185.601C222.415 187.504 221.615 189.303 220.27 190.652L198.258 212.68C196.908 214.026 195.109 214.825 193.206 214.926C191.303 215.027 189.43 214.422 187.945 213.226L170.971 199.511C167.92 201.012 164.775 202.314 161.556 203.409L159.256 225.112C159.054 227.015 158.154 228.776 156.729 230.054C155.304 231.332 153.456 232.037 151.542 232.031ZM127.359 216.563H144.576L146.685 196.68C146.85 195.124 147.484 193.654 148.502 192.466C149.521 191.277 150.875 190.426 152.388 190.023C157.836 188.571 163.066 186.398 167.939 183.563C169.296 182.772 170.861 182.413 172.427 182.534C173.993 182.654 175.485 183.249 176.705 184.238L192.256 196.804L204.43 184.63L191.843 169.125C190.854 167.905 190.26 166.413 190.139 164.848C190.018 163.282 190.377 161.716 191.168 160.359C193.997 155.489 196.163 150.262 197.608 144.818C198.011 143.305 198.863 141.95 200.053 140.932C201.242 139.913 202.713 139.28 204.27 139.116L224.147 137.002V119.785L204.27 117.671C202.713 117.506 201.242 116.873 200.053 115.855C198.863 114.837 198.011 113.481 197.608 111.968C196.164 106.522 193.998 101.294 191.168 96.4219C190.377 95.065 190.018 93.4996 190.139 91.9338C190.26 90.368 190.854 88.876 191.843 87.6563L204.409 72.105L192.235 59.9311L176.684 72.4969C175.464 73.4861 173.972 74.0805 172.407 74.2012C170.841 74.3218 169.275 73.963 167.918 73.1724C163.047 70.3451 157.821 68.1793 152.377 66.7322C150.865 66.3299 149.51 65.4782 148.492 64.2897C147.474 63.1012 146.84 61.6317 146.675 60.0755L144.586 40.2188H127.359L125.25 60.1013C125.085 61.6582 124.45 63.1281 123.431 64.3167C122.412 65.5053 121.056 66.3566 119.542 66.758C114.103 68.2117 108.882 70.3844 104.017 73.2188C102.66 74.0094 101.095 74.3683 99.5289 74.2476C97.9631 74.1269 96.4711 73.5325 95.2514 72.5433L79.7156 59.9569L67.5469 72.1308L80.1178 87.682C81.1062 88.9023 81.6997 90.3946 81.8195 91.9604C81.9392 93.5261 81.5795 95.0913 80.7881 96.4477C77.9631 101.32 75.7975 106.546 74.348 111.989C73.9457 113.501 73.094 114.856 71.9055 115.874C70.7169 116.892 69.2475 117.526 67.6912 117.691L47.8087 119.805V137.017L67.6912 139.131C69.2475 139.297 70.7169 139.93 71.9055 140.948C73.094 141.967 73.9457 143.321 74.348 144.834C75.7971 150.271 77.961 155.492 80.783 160.359C81.5743 161.716 81.934 163.281 81.8143 164.847C81.6946 166.412 81.101 167.905 80.1126 169.125L67.5469 184.65L79.7208 196.824L95.2772 184.259C96.4969 183.269 97.9889 182.675 99.5547 182.554C101.12 182.434 102.686 182.793 104.043 183.583C108.912 186.411 114.137 188.577 119.579 190.023C121.092 190.425 122.448 191.276 123.467 192.465C124.486 193.653 125.121 195.123 125.287 196.68L127.359 216.563Z" fill="white"/>
<path d="M135.975 175.498C126.659 175.497 117.551 172.733 109.805 167.557C102.059 162.38 96.0222 155.022 92.4575 146.414C88.8928 137.806 87.9607 128.335 89.7789 119.197C91.5972 110.06 96.0841 101.666 102.672 95.0787C109.261 88.4912 117.654 84.0051 126.792 82.1879C135.93 80.3706 145.402 81.3038 154.009 84.8694C162.617 88.435 169.973 94.4729 175.149 102.22C180.325 109.966 183.088 119.074 183.088 128.391C183.074 140.881 178.106 152.856 169.274 161.687C160.441 170.519 148.466 175.486 135.975 175.498ZM135.975 96.7519C129.718 96.7529 123.602 98.6093 118.399 102.086C113.197 105.564 109.143 110.505 106.749 116.287C104.355 122.068 103.729 128.429 104.95 134.566C106.172 140.703 109.186 146.34 113.61 150.764C118.035 155.189 123.673 158.201 129.81 159.422C135.947 160.642 142.309 160.015 148.089 157.62C153.87 155.226 158.811 151.17 162.288 145.968C165.764 140.765 167.619 134.648 167.619 128.391C167.61 120.002 164.273 111.959 158.34 106.027C152.408 100.096 144.365 96.76 135.975 96.7519Z" fill="white"/>
</svg>
