<svg width="120" height="120" viewBox="0 0 120 120" fill="none" xmlns="http://www.w3.org/2000/svg">
<path d="M78.1875 39.8203C82.0078 39.8203 85.9688 41.5547 89.2969 44.6016C86.9766 46.5938 85.1016 48.9844 83.7422 51.6797C81.8672 55.4297 81.0235 59.7188 81.3516 64.0313C81.6563 68.4141 83.1328 72.6094 85.5703 76.1719C87.4453 78.8906 89.836 81.1406 92.6016 82.8047C91.4297 85.3125 90.4453 87.1172 88.6641 89.9531C86.6953 93.0234 81.5156 101.203 76.4766 101.25H76.3828C74.6485 101.25 73.5235 100.734 71.8594 99.9375C69.5156 98.8359 66.6328 97.4531 61.6875 97.4531H61.5469C56.6016 97.4766 53.625 98.8359 51.2578 99.9375C49.5235 100.734 48.375 101.273 46.5938 101.273H46.5C41.9063 101.227 37.711 95.5781 34.5938 90.6797C30.0703 83.5547 27.1641 75.3047 26.4141 67.4531C25.7344 60.3047 26.8828 53.7422 29.5781 49.4766C31.4531 46.5 33.9141 44.0156 36.7031 42.3047C39.3281 40.7109 42.0938 39.8672 44.7188 39.8672C47.625 39.8672 50.0391 40.7578 52.6172 41.6953C55.3125 42.6797 58.125 43.7109 61.4531 43.7109C64.6406 43.7109 67.1485 42.7266 69.5625 41.7891C72.1875 40.7578 74.5781 39.8203 78.1875 39.8203ZM78.1875 36.0703C70.3125 36.0703 66.9844 39.9375 61.5 39.9375C55.875 39.9375 51.586 36.0938 44.7656 36.0938C38.086 36.0938 30.961 40.2891 26.4375 47.4375C20.086 57.5156 21.1641 76.5 31.4531 92.6719C35.1328 98.4609 40.0547 104.953 46.5 105.023C46.5469 105.023 46.5703 105.023 46.6172 105.023C52.2188 105.023 53.8828 101.25 61.5938 101.203C61.6406 101.203 61.6641 101.203 61.711 101.203C69.3047 101.203 70.8281 105 76.4063 105C76.4531 105 76.4766 105 76.5235 105C82.9688 104.93 88.1485 97.7344 91.8281 91.9687C94.4766 87.8203 95.461 85.7344 97.5 81.0469C82.6172 75.2344 80.2266 53.5312 94.9453 45.2109C90.4453 39.4219 84.1406 36.0703 78.1875 36.0703Z" fill="black"/>
<path d="M72.6327 19.8047C71.9999 23.2969 70.1718 26.0859 69.2109 27.3516C67.4765 29.6484 64.9921 31.4297 62.4609 32.2969C62.5781 31.5938 62.7656 30.8672 63.0234 30.1406C63.8437 27.75 65.1093 25.875 66.0234 24.7266C67.6874 22.6641 70.1484 20.8828 72.6327 19.8047ZM76.4531 15C71.7656 15.3281 66.3046 18.3984 63.0937 22.4062C60.1874 26.0391 57.7968 31.4297 58.7343 36.6562C58.8515 36.6562 58.9687 36.6562 59.1093 36.6562C64.1015 36.6562 69.2109 33.5625 72.1874 29.6016C75.0702 25.8281 77.2499 20.4844 76.4531 15Z" fill="black"/>
</svg>
