<svg width="104" height="104" viewBox="0 0 104 104" fill="none" xmlns="http://www.w3.org/2000/svg">
<path d="M96.3733 50.1367C74.7067 37.9601 31.3733 14.0834 9.70667 2.47008C9.39288 2.27888 9.03404 2.17422 8.66667 2.16675C8.09203 2.16675 7.54093 2.39502 7.1346 2.80135C6.72827 3.20768 6.5 3.75878 6.5 4.33341V99.6668C6.5 100.241 6.72827 100.792 7.1346 101.199C7.54093 101.605 8.09203 101.833 8.66667 101.833C9.01543 101.832 9.35816 101.742 9.66333 101.573C31.33 89.9168 74.6633 66.0401 96.33 53.9067C96.6658 53.7304 96.9471 53.4657 97.1433 53.1411C97.3395 52.8165 97.4432 52.4444 97.4432 52.0651C97.4432 51.6858 97.3395 51.3137 97.1433 50.9891C96.9471 50.6645 96.6658 50.3997 96.33 50.2234L96.3733 50.1367Z" stroke="#F9F9F9" stroke-linecap="round" stroke-linejoin="round"/>
<path d="M9.66333 2.427L73.1467 66.8637" stroke="#F9F9F9" stroke-linejoin="round"/>
<path d="M9.66333 101.574L73.1467 37.137" stroke="#F9F9F9" stroke-linejoin="round"/>
</svg>
